<svg xmlns="http://www.w3.org/2000/svg" xmlns:xlink="http://www.w3.org/1999/xlink" viewBox="0,0,256,256" width="30px" height="30px" fill-rule="nonzero"><g fill="#ffffff" fill-rule="nonzero" stroke="none" stroke-width="1" stroke-linecap="butt" stroke-linejoin="miter" stroke-miterlimit="10" stroke-dasharray="" stroke-dashoffset="0" font-family="none" font-weight="none" font-size="none" text-anchor="none" style="mix-blend-mode: normal"><g transform="scale(8.53333,8.53333)"><path d="M15,3c-2.94691,0 -5.67058,1.08978 -7.74414,2.83594c-0.27716,0.2291 -0.40998,0.58936 -0.34789,0.94355c0.0621,0.35419 0.30956,0.64777 0.64813,0.76892c0.33857,0.12115 0.71611,0.05121 0.98882,-0.18317c1.72644,-1.45384 4.00199,-2.36523 6.45508,-2.36523c5.22661,0 9.45668,3.91362 9.95117,9h-2.95117l4,6l4,-6h-3.05078c-0.508,-6.16514 -5.65128,-11 -11.94922,-11zM4.30078,9l-4,6h2.69922c0,6.63552 5.36448,12 12,12c2.94691,0 5.67058,-1.08978 7.74414,-2.83594c0.27717,-0.2291 0.41,-0.58936 0.3479,-0.94356c-0.0621,-0.35419 -0.30957,-0.64778 -0.64814,-0.76893c-0.33857,-0.12115 -0.71612,-0.0512 -0.98883,0.18319c-1.72644,1.45384 -4.00199,2.36523 -6.45508,2.36523c-5.56448,0 -10,-4.43552 -10,-10h3.30078z"></path></g></g></svg>